<?xml version="1.0" encoding="UTF-8" standalone="no"?>
<svg width="430" height="600" viewBox="0 0 430 600" xmlns="http://www.w3.org/2000/svg" style="background:#f9f9f9;font-family:'Segoe UI',Arial,sans-serif;direction:rtl">
  <rect x="0" y="0" width="430" height="600" fill="#f9f9f9"/>
  <rect x="0" y="0" width="430" height="60" fill="#1e88e5"/>
  <text x="215" y="38" font-size="26" fill="#fff" text-anchor="middle">الملف الشخصي</text>
  <g font-size="14" fill="#333">
    <text x="350" y="100">تسجيل الدخول / التسجيل</text>
    <rect x="40" y="85" width="350" height="28" rx="6" fill="#f5f5f5"/>
    <text x="215" y="105" font-size="12" fill="#888" text-anchor="middle">ahmad@email.com</text>
    <text x="350" y="140">متابعة الطلبات</text>
    <rect x="40" y="125" width="350" height="28" rx="6" fill="#f5f5f5"/>
    <text x="215" y="145" font-size="12" fill="#888" text-anchor="middle">طلب #1234 - قيد المعالجة</text>
    <text x="350" y="180">حالة الشكاوى</text>
    <rect x="40" y="165" width="350" height="28" rx="6" fill="#f5f5f5"/>
    <text x="215" y="185" font-size="12" fill="#888" text-anchor="middle">شكوى #567 - تم الرد</text>
    <text x="350" y="220">تعديل المعلومات</text>
    <rect x="40" y="205" width="350" height="28" rx="6" fill="#f5f5f5"/>
    <text x="215" y="225" font-size="12" fill="#888" text-anchor="middle">تغيير كلمة المرور</text>
    <text x="350" y="260">الإشعارات</text>
    <rect x="40" y="245" width="350" height="28" rx="6" fill="#f5f5f5"/>
    <text x="215" y="265" font-size="12" fill="#888" text-anchor="middle">لديك إشعار جديد من مكتب النائب</text>
  </g>
  <rect x="0" y="540" width="430" height="60" fill="#1e88e5"/>
  <g>
    <!-- Centered navigation bar with icons -->
    <g transform="translate(35,545)">
      <g>
        <circle cx="30" cy="10" r="10" fill="#fff"/>
        <text x="30" y="38" font-size="14" fill="#fff" text-anchor="middle">الرئيسية</text>
      </g>
      <g transform="translate(70,0)">
        <rect x="20" y="0" width="20" height="20" rx="4" fill="#fff"/>
        <text x="30" y="38" font-size="14" fill="#fff" text-anchor="middle">الخدمات</text>
      </g>
      <g transform="translate(140,0)">
        <polygon points="30,0 40,20 20,20" fill="#fff"/>
        <text x="30" y="38" font-size="14" fill="#fff" text-anchor="middle">شكاوى</text>
      </g>
      <g transform="translate(210,0)">
        <ellipse cx="30" cy="10" rx="12" ry="8" fill="#fff"/>
        <text x="30" y="38" font-size="14" fill="#fff" text-anchor="middle">إعلام</text>
      </g>
      <g transform="translate(280,0)">
        <rect x="20" y="0" width="20" height="20" rx="10" fill="#fff" stroke="#1e88e5"/>
        <text x="30" y="38" font-size="14" fill="#fff" text-anchor="middle">الملف الشخصي</text>
      </g>
    </g>
  </g>
</svg>